PathFileType	4	(X/Y/Z)	Patient4_TMGait_0pt2_02_left_14.trc.trc
DataRate	CameraRate	NumFrames	NumMarkers	Units	OrigDataRate	OrigDataStartFrame	OrigNumFrames
43.613707165109	43.613707165109	4	33	mm	43.613707165109	106	       141
Frame#	Time	R.Midfoot.Superior			Sacral			L.Shoulder			Chest			R.Shoulder			Neck			R.ASIS			L.ASIS			R.Thigh.Superior			R.Thigh.Lateral			R.Thigh.Inferior			R.Patella			L.Thigh.Superior			L.Thigh.Lateral			L.Thigh.Inferior			L.Patella			L.Shank.Superior			L.Shank.Lateral			L.Shank.Inferior			R.Shank.Superior			R.Shank.Lateral			R.Shank.Inferior			R.Heel			R.Midfoot.Lateral			R.Toe			L.Heel			L.Midfoot.Lateral			L.Midfoot.Superior			L.Toe			L.Elbow			L.Wrist			R.Elbow			R.Wrist			
		X1	Y1	Z1	X2	Y2	Z2	X3	Y3	Z3	X4	Y4	Z4	X5	Y5	Z5	X6	Y6	Z6	X7	Y7	Z7	X8	Y8	Z8	X9	Y9	Z9	X10	Y10	Z10	X11	Y11	Z11	X12	Y12	Z12	X13	Y13	Z13	X14	Y14	Z14	X15	Y15	Z15	X16	Y16	Z16	X17	Y17	Z17	X18	Y18	Z18	X19	Y19	Z19	X20	Y20	Z20	X21	Y21	Z21	X22	Y22	Z22	X23	Y23	Z23	X24	Y24	Z24	X25	Y25	Z25	X26	Y26	Z26	X27	Y27	Z27	X28	Y28	Z28	X29	Y29	Z29	X30	Y30	Z30	X31	Y31	Z31	X32	Y32	Z32	X33	Y33	Z33	

106	34.377500000000	1050.014520915323	96.252415680449	607.510813301247	839.230328106966	990.493630438427	578.976541652358	1019.139986346672	1412.154906572490	372.830596163705	1125.482420902857	1347.607343865784	532.601418189127	1050.429298077643	1429.163834570608	706.412298292017	1008.541349676764	1480.028549162132	529.726029366886	1077.637679075356	929.385873274569	682.083612827564	1045.506665174098	949.327581216617	410.399311099501	1129.304528177632	734.022025558546	631.717486929164	1062.333830177673	613.875405755794	689.597568776219	1133.496361713292	571.921540684033	597.845378425784	1139.587763322136	476.625169442276	597.589260578528	1127.010799160485	761.797953723283	428.296291831417	1075.061646428420	640.202339915178	343.488473081965	1178.115161470130	571.851823691115	399.244147453151	1185.498010938214	482.726274776414	383.332582453241	1113.846221430783	421.121813030692	369.058615361600	967.903456586670	392.836218678941	319.998385290499	948.105779500581	257.395144986194	357.190242330159	1096.218557736218	388.319964365494	604.243918819080	1019.672174070921	292.374737437111	672.743157212313	1034.477610132347	196.814264442219	602.325835889898	875.609946044170	44.075103610219	589.903299266978	966.060457728992	37.363019654939	655.512977403529	1172.205995386277	43.385008667217	624.142341159194	756.196885084150	216.172985125325	396.577733878139	799.867508074214	162.494803654326	312.180668177015	906.543535292026	149.350906461714	326.325073952131	961.010645806641	31.313473271766	291.613946222426	975.075174120222	1054.078371671717	276.518157752050	1038.772720949753	802.163756338717	277.949820164915	1033.977569555135	1085.615963226637	846.631081595139	1133.478723552199	843.544443213609	859.508605265968	
107	34.400428571429	1045.552645556098	96.171597086427	607.453463700024	838.571926392827	988.918047928743	583.759336848525	1014.185107433411	1410.921236993284	375.630484876312	1123.761077969421	1346.180702364524	533.225406195490	1052.452689973327	1427.542853392898	708.693389894514	1007.100875139421	1478.894313478329	532.743746017737	1078.263234278176	928.026661579139	683.537258773875	1042.443249468515	948.758746281626	412.392028809085	1129.683230213032	732.645206102410	632.395639577389	1063.300910941390	612.255439767390	690.211776981435	1133.739342691187	570.729232977122	597.636181510188	1139.696082989320	475.065762411136	596.953297038508	1129.537843931452	766.078624503871	431.762900488991	1082.784988186293	642.750335834002	346.442391436923	1187.438488739238	577.445208961406	403.331167311716	1197.516477493449	488.059899582020	387.048235510509	1126.686099658141	424.842850143709	372.301483629381	980.785763482352	395.102907186117	323.668955926626	963.122490938228	259.221788413241	360.250505121893	1095.306506551985	386.838428559600	603.790171619210	1018.171892465913	291.541276956447	672.637559484230	1031.424092256506	195.994309820051	602.039925105512	871.089349548489	44.119112660658	589.994451388142	961.507557657436	37.344784355594	655.553568892178	1167.686156110323	43.134840740178	624.169990175038	772.369278982575	214.745692720604	400.193453357137	816.193736201853	163.663598231298	314.654805386435	922.829630281685	151.743291371089	328.640945980067	978.452286461347	32.976487010990	290.948451374491	956.407925589992	1053.722037370542	284.203005158163	997.196878394961	796.057655351751	290.350758493334	1055.849657391147	1083.089818914548	848.771840960658	1173.833968486487	849.673062076590	858.130050958700	
108	34.423357142857	1041.053115589842	96.100780891387	607.425485692135	838.006089990752	988.022871898975	588.265967170743	1009.296487901106	1410.362348760996	378.293232327509	1122.133782576304	1345.276765994573	533.501599188098	1054.802106175943	1426.482195563133	710.573415700644	1005.785440546650	1478.286237715076	535.524421175428	1078.822372721037	927.065728033747	684.584361674909	1039.405904985764	948.723030552636	414.014867559173	1129.445733963832	731.442806467946	632.871612607361	1063.388883212217	611.039746525456	690.805362712098	1132.942974705610	569.705368387366	597.440418428164	1138.615781791772	473.851570623744	596.436190491588	1130.776328797492	770.125041568557	434.808184867530	1088.296937106511	645.433020522004	349.182345804799	1194.063001202509	582.718361311016	407.088663443638	1206.749446562947	493.526550287825	390.545598058775	1137.574540562181	428.621029242754	375.312777553234	992.627935141142	395.286946769080	327.026248125355	979.218158352824	259.051921957552	363.038980782069	1093.446104853553	385.708936123305	603.453877583306	1015.972739146126	290.882209807577	672.634711248887	1027.970714281338	195.384755936352	601.860591165980	866.544157694478	44.150188106788	590.102314562901	956.934786008333	37.315409227494	655.608980295372	1163.136905365546	42.928696160466	624.186502194444	790.937811575781	207.566749568315	403.321628153343	835.893030448766	160.453197136486	316.684240566975	942.183217216764	152.239778407665	330.656658260381	1001.488524328159	35.212187605786	290.040306317772	937.367950362785	1055.085927237399	291.130031538166	957.611700901640	794.366749061260	302.775763107863	1078.283725216139	1082.440919655642	850.100127379904	1214.883859922301	859.665497293819	855.061689438284	
109	34.446285714286	1036.515266062736	96.041000640099	607.438373718176	837.534933445630	987.876254649659	592.520850107793	1004.552920878895	1410.549942686921	380.837392897371	1120.649791706726	1344.939379368709	533.452960701568	1057.502628718712	1426.022619471046	712.052764457758	1004.636795297485	1478.245226398183	538.083280970493	1079.328713398042	926.546202379859	685.230606161316	1036.385595096454	949.248230652517	415.272863099562	1128.562072121604	730.455380251045	633.183609683054	1062.542177101484	610.278972347579	691.438154277045	1131.050903028227	568.883396158560	597.334214964836	1136.278305711683	473.019229031845	596.129873196634	1130.700486569093	773.809398259620	437.368273112403	1091.497747465401	648.112073462891	351.617681495615	1197.906190022648	587.461879342011	410.400457214761	1213.077465292298	498.949742408876	393.687152555893	1146.419828369947	432.343669233947	377.945612269125	1003.511650740300	393.339324804934	329.814623047147	996.419294223851	256.980313973383	365.326574249906	1090.584521072503	384.972316512108	603.309307566771	1013.028237631309	290.416945681549	672.788016615653	1024.095443492503	195.007058710622	601.820907479287	861.970379056447	44.169114157077	590.226174753101	952.342025700882	37.275164846407	655.682660668470	1158.558252810377	42.767248278771	624.193533510392	812.086308830024	195.194355604844	405.670451391369	859.010632371401	153.129400593906	318.075576970861	964.586663115041	150.823221518400	332.177873106130	1029.776976156653	37.874894907577	288.958640755574	918.252054452780	1058.227312250348	297.321722822792	920.640903225158	796.594919828248	315.120385807842	1101.064876878756	1083.779799739336	850.622349863888	1256.008017502879	873.712041951802	850.336730711467	
